# xmcd
#
# Track frame offsets: 
#        150
#        9434
#        20360
#        32224
#        42732
#        57423
#        76968
#        90439
#        99250
#        115522
#        125264
#        141535
#
# Disc length: 2105 seconds
#
# Revision: 0
# Processed by: cddbd v1.5.2PL0 Copyright (c) Steve Scherf et al.
# Submitted via: ExactAudioCopy v1.0b4
#
DISCID=9308370c
DTITLE=Elvis Presley - Classic Collection Elvis Country
DYEAR=2013
DGENRE=Country
TTITLE0=Blue Moon Of Kentucky
TTITLE1=Your Cheatin' Heart
TTITLE2=(Now And Then There's) A Fool Such As I
TTITLE3=Guitar Man
TTITLE4=Kentucky Rain
TTITLE5=Funny How Time Slips Away
TTITLE6=There Goes My Everything
TTITLE7=Welcome To My World
TTITLE8=Make The World Go Away
TTITLE9=I'm So Lonesome I Could Cry
TTITLE10=Green, Green Grass Of Home
TTITLE11=Always On My Mind
EXTD=
EXTT0=
EXTT1=
EXTT2=
EXTT3=
EXTT4=
EXTT5=
EXTT6=
EXTT7=
EXTT8=
EXTT9=
EXTT10=
EXTT11=
PLAYORDER=
